<svg width="10" height="12" viewBox="0 0 10 12" fill="none" xmlns="http://www.w3.org/2000/svg">
<path d="M4.78209 0C2.14477 0 0 2.01825 0 4.5C0 7.61925 4.31663 11.7172 4.49995 11.8905C4.57805 11.9633 4.68007 12 4.78209 12C4.88411 12 4.98613 11.9633 5.06423 11.8905C5.24755 11.7172 9.56418 7.61925 9.56418 4.5C9.56418 2.01825 7.41941 0 4.78209 0Z" fill="#07B70A"/>
<path d="M4.78167 6.75C6.10221 6.75 7.17271 5.74264 7.17271 4.5C7.17271 3.25736 6.10221 2.25 4.78167 2.25C3.46113 2.25 2.39062 3.25736 2.39062 4.5C2.39062 5.74264 3.46113 6.75 4.78167 6.75Z" fill="#FAFAFA"/>
</svg>
